<svg viewBox="0 -15 512 512" xmlns="http://www.w3.org/2000/svg"><path d="m330.882812 182.734375v88.460937c0 4.902344-3.976562 8.878907-8.878906 8.878907h-132.007812c-4.902344 0-8.878906-3.976563-8.878906-8.878907v-88.460937zm0 0" fill="#a7c7d3"/><path d="m181.117188 182.734375h149.765624v30.472656h-149.765624zm0 0" fill="#89b4c9"/><path d="m438.574219 160.382812c-50.144531 0-99.769531-11.152343-144.675781-33.464843-8.015626-3.984375-17.054688-6.226563-26.617188-6.226563h-22.5625c-9.5625 0-18.601562 2.242188-26.617188 6.226563-44.90625 22.3125-94.53125 33.464843-144.675781 33.464843-11.171875 0-20.230469 9.054688-20.230469 20.230469 0 11.171875 9.058594 20.230469 20.230469 20.230469h365.148438c11.175781 0 20.234375-9.058594 20.234375-20.230469-.003906-11.175781-9.058594-20.230469-20.234375-20.230469zm0 0" fill="#e3f4ff"/><path d="m252.296875 243.84375c0 8.054688-6.527344 14.582031-14.582031 14.582031-8.054688 0-14.582032-6.527343-14.582032-14.582031s6.527344-14.582031 14.582032-14.582031c8.054687 0 14.582031 6.527343 14.582031 14.582031zm0 0" fill="#5be167"/><path d="m272.28125 242.835938c-4.269531 0-7.769531-3.457032-7.769531-7.726563 0-4.265625 3.417969-7.722656 7.6875-7.722656h.082031c4.265625 0 7.726562 3.457031 7.726562 7.722656 0 4.269531-3.460937 7.726563-7.726562 7.726563zm0 0" fill="#fdb659"/><path d="m285.363281 260.199219c-4.265625 0-7.765625-3.460938-7.765625-7.726563s3.417969-7.726562 7.683594-7.726562h.082031c4.269531 0 7.726563 3.460937 7.726563 7.726562.003906 4.265625-3.457032 7.726563-7.726563 7.726563zm0 0" fill="#e3f4ff"/><path d="m84.796875 174.121094c-4.269531 0-7.726563-3.460938-7.726563-7.726563v-67.039062c0-4.265625 3.457032-7.726563 7.726563-7.726563 4.265625 0 7.726563 3.460938 7.726563 7.726563v67.039062c0 4.265625-3.460938 7.726563-7.726563 7.726563zm0 0" fill="#618baa"/><path d="m158.492188 127.910156h-147.390626c-6.132812 0-11.101562-4.96875-11.101562-11.101562 0-6.128906 4.96875-11.097656 11.101562-11.097656h147.390626c6.128906 0 11.101562 4.96875 11.101562 11.097656 0 6.132812-4.972656 11.101562-11.101562 11.101562zm0 0" fill="#43a3f9"/><path d="m97.671875 84.539062c0 7.113282-5.765625 12.878907-12.875 12.878907-7.113281 0-12.878906-5.765625-12.878906-12.878907 0-7.109374 5.765625-12.875 12.878906-12.875 7.109375 0 12.875 5.765626 12.875 12.875zm0 0" fill="#e3f4ff"/><path d="m427.203125 174.121094c-4.265625 0-7.726563-3.460938-7.726563-7.726563v-67.039062c0-4.265625 3.460938-7.726563 7.726563-7.726563 4.269531 0 7.726563 3.460938 7.726563 7.726563v67.039062c0 4.265625-3.457032 7.726563-7.726563 7.726563zm0 0" fill="#618baa"/><path d="m500.898438 127.910156h-147.390626c-6.128906 0-11.101562-4.96875-11.101562-11.101562 0-6.128906 4.972656-11.097656 11.101562-11.097656h147.390626c6.132812 0 11.101562 4.96875 11.101562 11.097656 0 6.132812-4.96875 11.101562-11.101562 11.101562zm0 0" fill="#43a3f9"/><path d="m440.082031 84.539062c0 7.113282-5.765625 12.878907-12.878906 12.878907-7.109375 0-12.875-5.765625-12.875-12.878907 0-7.109374 5.765625-12.875 12.875-12.875 7.113281 0 12.878906 5.765626 12.878906 12.875zm0 0" fill="#e3f4ff"/><g fill="#a7c7d3"><path d="m314.804688 168.007812h-17.761719c-4.269531 0-7.726563-3.460937-7.726563-7.726562 0-4.269531 3.460938-7.726562 7.726563-7.726562h17.761719c4.265624 0 7.726562 3.457031 7.726562 7.726562 0 4.265625-3.460938 7.726562-7.726562 7.726562zm0 0"/><path d="m314.804688 185.378906h-17.761719c-4.269531 0-7.726563-3.457031-7.726563-7.726562 0-4.265625 3.460938-7.722656 7.726563-7.722656h17.761719c4.265624 0 7.726562 3.457031 7.726562 7.722656 0 4.269531-3.460938 7.726562-7.726562 7.726562zm0 0"/><path d="m214.957031 168.007812h-17.761719c-4.265624 0-7.726562-3.460937-7.726562-7.726562 0-4.269531 3.460938-7.726562 7.726562-7.726562h17.761719c4.269531 0 7.726563 3.457031 7.726563 7.726562 0 4.265625-3.460938 7.726562-7.726563 7.726562zm0 0"/><path d="m214.957031 185.378906h-17.761719c-4.265624 0-7.726562-3.457031-7.726562-7.726562 0-4.265625 3.460938-7.722656 7.726562-7.722656h17.761719c4.269531 0 7.726563 3.457031 7.726563 7.722656 0 4.269531-3.460938 7.726562-7.726563 7.726562zm0 0"/></g><path d="m123.476562 315.375c-6.128906 0-11.101562-4.972656-11.101562-11.101562v-37.238282c0-20.871094 16.980469-37.851562 37.851562-37.851562h41.441407c6.132812 0 11.101562 4.96875 11.101562 11.101562 0 6.128906-4.96875 11.101563-11.101562 11.101563h-41.441407c-8.628906 0-15.648437 7.019531-15.648437 15.648437v37.238282c0 6.128906-4.972656 11.101562-11.101563 11.101562zm0 0" fill="#618baa"/><path d="m388.523438 300.058594c-6.132813 0-11.101563-4.96875-11.101563-11.101563v-21.921875c0-8.628906-7.019531-15.648437-15.648437-15.648437h-41.441407c-6.132812 0-11.101562-4.972657-11.101562-11.101563 0-6.132812 4.96875-11.101562 11.101562-11.101562h41.441407c20.871093 0 37.851562 16.980468 37.851562 37.847656v21.925781c0 6.132813-4.972656 11.101563-11.101562 11.101563zm0 0" fill="#618baa"/><path d="m132.382812 411.933594-27.402343-2.429688 3.472656-39.167968 27.402344 2.429687zm0 0" fill="#4e7693"/><path d="m147.472656 431.132812c0 16.894532-13.695312 30.59375-30.59375 30.59375-16.898437 0-30.59375-13.699218-30.59375-30.59375 0-16.898437 13.695313-30.597656 30.59375-30.597656 16.898438 0 30.59375 13.699219 30.59375 30.597656zm0 0" fill="#a7c7d3"/><path d="m201.222656 482.042969c-.695312 0-1.390625-.09375-2.070312-.28125l-26.789063-7.445313c-6.535156-1.8125-11.972656-6.066406-15.308593-11.96875-3.339844-5.90625-4.175782-12.757812-2.363282-19.292968 3.75-13.488282 17.773438-21.410157 31.261719-17.667969l26.792969 7.441406c1.976562.550781 3.652344 1.859375 4.660156 3.644531l6.144531 10.875c2.101563 3.714844.789063 8.425782-2.925781 10.527344-3.714844 2.097656-8.429688.789062-10.527344-2.925781l-4.570312-8.089844-23.707032-6.585937c-5.277343-1.46875-10.769531 1.636718-12.234374 6.917968-.714844 2.558594-.386719 5.238282.921874 7.550782 1.304688 2.308593 3.433594 3.972656 5.992188 4.683593l23.707031 6.585938 7.652344-4.324219c3.714844-2.097656 8.425781-.789062 10.527344 2.925781 2.097656 3.714844.789062 8.429688-2.925781 10.527344l-10.4375 5.898437c-1.171876.664063-2.480469 1.003907-3.800782 1.003907zm0 0" fill="#a7c7d3"/><path d="m177.339844 457.074219c-.683594 0-1.378906-.089844-2.070313-.285157l-30.34375-8.425781c-4.113281-1.144531-6.519531-5.402343-5.375-9.515625 1.140625-4.109375 5.398438-6.519531 9.511719-5.375l30.339844 8.429688c4.113281 1.140625 6.519531 5.398437 5.378906 9.511718-.949219 3.421876-4.058594 5.660157-7.441406 5.660157zm0 0" fill="#618baa"/><path d="m155.953125 323.355469c2.222656 4.066406 3.652344 8.351562 4.332031 12.679687 2.523438 15.945313-5.015625 32.464844-19.996094 40.636719-19.054687 10.394531-42.925781 3.378906-53.316406-15.667969-10.402344-19.050781-3.382812-42.925781 15.667969-53.316406 14.617187-7.984375 32.078125-5.707031 44.109375 4.402344 3.644531 3.058594 6.785156 6.835937 9.203125 11.265625zm0 0" fill="#a7c7d3"/><path d="m155.953125 323.355469c2.222656 4.066406 3.652344 8.351562 4.332031 12.679687l-23.992187 13.558594c-3.304688 1.867188-7.054688 2.222656-10.445313 1.277344-3.394531-.941406-6.425781-3.179688-8.292968-6.480469-3.738282-6.613281-1.40625-15.003906 5.203124-18.742187l23.992188-13.558594c3.644531 3.058594 6.785156 6.835937 9.203125 11.265625zm0 0" fill="#43a3f9"/><path d="m405.089844 339.027344 22.65625-15.59375 22.296875 32.390625-22.65625 15.597656zm0 0" fill="#4e7693"/><path d="m480.9375 380.496094c0 16.898437-13.699219 30.597656-30.59375 30.597656-16.898438 0-30.597656-13.699219-30.597656-30.597656 0-16.894532 13.699218-30.59375 30.597656-30.59375 16.894531 0 30.59375 13.699218 30.59375 30.59375zm0 0" fill="#a7c7d3"/><path d="m398.164062 467.320312h-11.988281c-4.265625 0-7.726562-3.460937-7.726562-7.726562s3.460937-7.726562 7.726562-7.726562h8.789063l17.398437-17.398438c3.875-3.875 3.875-10.179688 0-14.054688-1.878906-1.878906-4.371093-2.910156-7.027343-2.910156s-5.148438 1.03125-7.027344 2.910156l-17.398438 17.398438v9.289062c0 4.269532-3.460937 7.726563-7.726562 7.726563s-7.726563-3.457031-7.726563-7.726563v-12.488281c0-2.050781.816407-4.015625 2.265625-5.464843l19.660156-19.660157c4.796876-4.796875 11.171876-7.4375 17.957032-7.4375 6.78125 0 13.15625 2.640625 17.953125 7.4375 9.898437 9.898438 9.898437 26.007813 0 35.910157l-19.660157 19.660156c-1.453124 1.449218-3.417968 2.261718-5.46875 2.261718zm0 0" fill="#a7c7d3"/><path d="m406.671875 433.828125c-1.976563 0-3.953125-.753906-5.460937-2.261719-3.019532-3.015625-3.019532-7.910156 0-10.925781l22.265624-22.269531c3.019532-3.015625 7.910157-3.015625 10.929688 0 3.015625 3.019531 3.015625 7.910156 0 10.929687l-22.269531 22.265625c-1.507813 1.507813-3.488281 2.261719-5.464844 2.261719zm0 0" fill="#618baa"/><path d="m363.292969 305.898438c.066406 4.632812.933593 9.066406 2.46875 13.171874 5.648437 15.121094 20.339843 25.792969 37.40625 25.535157 21.699219-.324219 39.03125-18.175781 38.703125-39.875-.316406-21.699219-18.175782-39.03125-39.871094-38.703125-16.65625.238281-30.734375 10.816406-36.238281 25.535156-1.664063 4.457031-2.542969 9.289062-2.46875 14.335938zm0 0" fill="#a7c7d3"/><path d="m363.292969 305.898438c.066406 4.632812.933593 9.066406 2.46875 13.171874h27.558593c3.796876 0 7.238282-1.539062 9.722657-4.03125 2.492187-2.488281 4.03125-5.929687 4.03125-9.722656 0-7.597656-6.15625-13.753906-13.753907-13.753906h-27.558593c-1.664063 4.457031-2.542969 9.289062-2.46875 14.335938zm0 0" fill="#43a3f9"/><path d="m272.632812 65.378906c-1.148437 0-2.320312-.257812-3.421874-.804687-4.132813-2.042969-8.578126-3.082031-13.210938-3.082031s-9.078125 1.039062-13.210938 3.082031c-3.824218 1.894531-8.460937.328125-10.351562-3.496094-1.894531-3.824219-.328125-8.457031 3.496094-10.351563 6.285156-3.109374 13.035156-4.6875 20.066406-4.6875s13.785156 1.578126 20.066406 4.6875c3.824219 1.894532 5.390625 6.527344 3.496094 10.351563-1.347656 2.722656-4.082031 4.300781-6.929688 4.300781zm0 0" fill="#64bdff"/><path d="m285.003906 45.273438c-1.148437 0-2.320312-.257813-3.421875-.804688-8.007812-3.960938-16.613281-5.972656-25.582031-5.972656s-17.574219 2.011718-25.582031 5.972656c-3.824219 1.894531-8.457031.328125-10.351563-3.496094-1.894531-3.824218-.328125-8.457031 3.496094-10.351562 10.15625-5.027344 21.070312-7.574219 32.4375-7.574219s22.28125 2.546875 32.441406 7.574219c3.824219 1.894531 5.386719 6.527344 3.496094 10.351562-1.347656 2.722656-4.085938 4.300782-6.933594 4.300782zm0 0" fill="#64bdff"/><path d="m306.574219 27.265625c-1.152344 0-2.320313-.257813-3.421875-.800781-14.757813-7.308594-30.621094-11.011719-47.152344-11.011719s-32.394531 3.703125-47.152344 11.011719c-3.828125 1.890625-8.460937.324218-10.355468-3.496094-1.890626-3.824219-.328126-8.460938 3.5-10.355469 16.90625-8.371093 35.078124-12.613281 54.007812-12.613281s37.101562 4.242188 54.007812 12.613281c3.824219 1.894531 5.390626 6.527344 3.496094 10.355469-1.347656 2.71875-4.082031 4.296875-6.929687 4.296875zm0 0" fill="#64bdff"/></svg>