<?xml version="1.0" encoding="iso-8859-1"?>
<!-- Generator: Adobe Illustrator 19.0.0, SVG Export Plug-In . SVG Version: 6.00 Build 0)  -->
<svg version="1.1" id="Capa_1" xmlns="http://www.w3.org/2000/svg" xmlns:xlink="http://www.w3.org/1999/xlink" x="0px" y="0px"
	 viewBox="0 0 512.045 512.045" style="enable-background:new 0 0 512.045 512.045;" xml:space="preserve">
<polygon style="fill:#ECEFF1;" points="103.359,199.063 130.879,64.023 383.999,64.023 409.279,199.383 "/>
<g>
	<path style="fill:#455A64;" d="M508.799,118.167c-3.075-3.933-7.809-6.205-12.8-6.144h-48c-7.344,0.002-13.743,5.003-15.52,12.128
		l-13.856,55.392l-14.272,4.608c-8.412,2.705-13.039,11.717-10.335,20.13c2.131,6.627,8.302,11.116,15.263,11.102
		c1.672-0.005,3.334-0.263,4.928-0.768l20.32-6.592h45.472c7.344-0.002,13.743-5.003,15.52-12.128l16-64
		C512.768,127.144,511.765,122.082,508.799,118.167z"/>
	<path style="fill:#455A64;" d="M107.999,183.767l-14.688-4.544l-13.792-55.072c-1.777-7.125-8.176-12.126-15.52-12.128h-48
		c-8.837,0.002-15.998,7.168-15.996,16.004c0,1.304,0.16,2.603,0.476,3.868l16,64c1.777,7.125,8.176,12.126,15.52,12.128h45.664
		l21.056,6.4c1.508,0.44,3.069,0.666,4.64,0.672c8.837-0.03,15.976-7.217,15.946-16.053c-0.023-7.009-4.606-13.187-11.306-15.243
		V183.767z"/>
	<path style="fill:#455A64;" d="M47.999,240.023h416c8.837,0,16,7.163,16,16v96c0,8.837-7.163,16-16,16h-416
		c-8.837,0-16-7.163-16-16v-96C31.999,247.186,39.163,240.023,47.999,240.023z"/>
	<path style="fill:#455A64;" d="M79.999,336.023h64c8.837,0,16,7.163,16,16v96c0,8.837-7.163,16-16,16h-64c-8.837,0-16-7.163-16-16
		v-96C63.999,343.186,71.163,336.023,79.999,336.023z"/>
	<path style="fill:#455A64;" d="M367.999,336.023h64c8.837,0,16,7.163,16,16v96c0,8.837-7.163,16-16,16h-64c-8.837,0-16-7.163-16-16
		v-96C351.999,343.186,359.163,336.023,367.999,336.023z"/>
</g>
<path style="fill:#607D8B;" d="M383.999,176.023h-256c-35.346,0-64,28.654-64,64v112c0,8.837,7.163,16,16,16h352
	c8.837,0,16-7.163,16-16v-112C447.999,204.676,419.346,176.023,383.999,176.023z"/>
<path d="M431.999,368.023h-352c-8.837,0-16-7.163-16-16v-112c0-35.346,28.654-64,64-64h256c35.346,0,64,28.654,64,64v112
	C447.999,360.859,440.836,368.023,431.999,368.023z M95.999,336.023h320v-96c0-17.673-14.327-32-32-32h-256
	c-17.673,0-32,14.327-32,32V336.023z"/>
<path d="M463.999,368.023h-416c-8.837,0-16-7.163-16-16v-96c0-8.837,7.163-16,16-16h32c8.837,0,16,7.163,16,16
	c0,8.837-7.163,16-16,16h-16v64h384v-64h-16c-8.837,0-16-7.163-16-16c0-8.837,7.163-16,16-16h32c8.837,0,16,7.163,16,16v96
	C479.999,360.859,472.836,368.023,463.999,368.023z"/>
<path d="M143.999,464.023h-64c-8.837,0-16-7.163-16-16v-96c0-8.837,7.163-16,16-16s16,7.163,16,16v80h32v-80c0-8.837,7.163-16,16-16
	s16,7.163,16,16v96C159.999,456.859,152.836,464.023,143.999,464.023z"/>
<path d="M431.999,464.023h-64c-8.837,0-16-7.163-16-16v-96c0-8.837,7.163-16,16-16s16,7.163,16,16v80h32v-80c0-8.837,7.163-16,16-16
	s16,7.163,16,16v96C447.999,456.859,440.836,464.023,431.999,464.023z"/>
<path d="M144.639,272.023c-8.837,0-16-7.163-16-16c0-8.837,7.163-16,16-16h0.32c8.837,0,16,7.163,16,16c0,8.837-7.163,16-16,16
	H144.639z"/>
<path d="M368.639,272.023c-8.837,0-16-7.163-16-16c-0.002-8.713,6.969-15.826,15.68-16h0.32c8.837,0,16,7.163,16,16
	C384.639,264.859,377.476,272.023,368.639,272.023z"/>
<path d="M255.999,304.023c-8.837,0-16-7.163-16-16v-32c0-8.837,7.163-16,16-16c8.837,0,16,7.163,16,16v32
	C271.999,296.859,264.836,304.023,255.999,304.023z"/>
<path d="M191.999,304.023c-8.837,0-16-7.163-16-16v-32c0-8.837,7.163-16,16-16s16,7.163,16,16v32
	C207.999,296.859,200.836,304.023,191.999,304.023z"/>
<path d="M319.999,304.023c-8.837,0-16-7.163-16-16v-32c0-8.837,7.163-16,16-16s16,7.163,16,16v32
	C335.999,296.859,328.836,304.023,319.999,304.023z"/>
<path d="M409.279,215.383c-7.708,0.008-14.326-5.48-15.744-13.056L370.719,80.023h-226.72l-24.96,122.24
	c-1.767,8.66-10.22,14.247-18.88,12.48c-8.66-1.767-14.247-10.22-12.48-18.88l27.52-135.04c1.521-7.451,8.076-12.802,15.68-12.8
	h253.12c7.708-0.008,14.326,5.48,15.744,13.056l25.28,135.36c1.633,8.684-4.082,17.048-12.767,18.682
	c-0.011,0.002-0.022,0.004-0.033,0.006C411.25,215.29,410.266,215.375,409.279,215.383z"/>
<path d="M479.999,208.023h-48c-8.837-0.002-15.998-7.168-15.996-16.004c0-1.304,0.16-2.603,0.476-3.868l16-64
	c1.777-7.125,8.176-12.126,15.52-12.128h48c8.837,0.002,15.998,7.168,15.996,16.004c0,1.304-0.16,2.603-0.476,3.868l-16,64
	C493.742,203.02,487.343,208.021,479.999,208.023z M452.511,176.023h14.976l8-32h-14.976L452.511,176.023z"/>
<path d="M79.999,208.023h-48c-7.344-0.002-13.743-5.003-15.52-12.128l-16-64c-2.138-8.574,3.079-17.258,11.652-19.396
	c1.265-0.316,2.564-0.475,3.868-0.476h48c7.344,0.002,13.743,5.003,15.52,12.128l16,64c2.138,8.574-3.079,17.258-11.652,19.396
	C82.602,207.863,81.303,208.022,79.999,208.023z M44.511,176.023h14.976l-8-32H36.511L44.511,176.023z"/>
<path d="M409.279,215.383c-8.837,0.017-16.014-7.133-16.03-15.969c-0.013-6.961,4.476-13.132,11.102-15.263l22.72-7.36
	c8.412-2.722,17.438,1.892,20.16,10.304c2.722,8.412-1.892,17.438-10.304,20.16l-22.72,7.36
	C412.613,215.119,410.951,215.378,409.279,215.383z"/>
<path d="M103.359,215.063c-1.569,0.005-3.131-0.211-4.64-0.64l-23.36-7.04c-8.465-2.563-13.251-11.503-10.688-19.968
	s11.503-13.251,19.968-10.688l0,0l23.36,7.072c8.448,2.592,13.195,11.542,10.603,19.99c-2.056,6.701-8.234,11.283-15.243,11.306
	V215.063z"/>
<g>
</g>
<g>
</g>
<g>
</g>
<g>
</g>
<g>
</g>
<g>
</g>
<g>
</g>
<g>
</g>
<g>
</g>
<g>
</g>
<g>
</g>
<g>
</g>
<g>
</g>
<g>
</g>
<g>
</g>
</svg>
