<svg height="480pt" viewBox="0 -2 480.58524 480" width="480pt" xmlns="http://www.w3.org/2000/svg"><path d="m288.699219 408.394531h81.699219v14h-81.699219zm0 0" fill="#00efd1"/><path d="m110.300781 408.394531h69.398438v14h-69.398438zm0 0" fill="#00efd1"/><path d="m370.199219 415.394531c2.558593-29.941406 28.5625-52.359375 58.550781-50.480469 29.992188 1.882813 52.992188 27.371094 51.792969 57.394532-1.203125 30.027344-26.164063 53.597656-56.210938 53.078125-30.042969-.523438-54.171875-24.945313-54.332031-54.992188-.03125-1.671875.035156-3.339843.199219-5zm0 0" fill="#87e680"/><path d="m410 65.59375v209.5h-42.5v-149.902344h-81.5v149.902344h-185.398438c-16.886718-.035156-30.566406-13.714844-30.601562-30.601562v-15.898438c.035156-16.886719 13.714844-30.566406 30.601562-30.601562h36.5v-134.097657l43 .398438h1.296876v104l31 51.398437 31-51.398437v-103.601563h1.800781zm0 0" fill="#00acea"/><path d="m367.5 275.09375v83.898438h-81.5v-233.800782h81.5zm-26.199219 42.800781c0-8.066406-6.539062-14.601562-14.601562-14.601562s-14.597657 6.535156-14.597657 14.601562c0 8.0625 6.535157 14.597657 14.597657 14.597657 3.875.011718 7.597656-1.519532 10.339843-4.261719 2.738282-2.742188 4.273438-6.460938 4.261719-10.335938zm0 0" fill="#00efd1"/><path d="m341.300781 317.894531c0 8.0625-6.539062 14.597657-14.601562 14.597657s-14.597657-6.535157-14.597657-14.597657c0-8.066406 6.535157-14.601562 14.597657-14.601562s14.601562 6.535156 14.601562 14.601562zm0 0" fill="#fedb41"/><path d="m289.101562 415.394531c.097657 1.597657.199219 3.296875.199219 5 0 30.375-24.625 55-55 55s-55-24.625-55-55c0-1.703125.097657-3.402343.199219-5 2.597656-28.328125 26.355469-50.007812 54.800781-50.007812 28.445313 0 52.203125 21.679687 54.800781 50.007812zm0 0" fill="#ea5281"/><path d="m243.398438 64.691406v103.703125l-31 51.398438-31-51.398438v-131.601562h62zm0 0" fill="#fedb41"/><path d="m243.398438.292969v36.5h-62v-36.5zm0 0" fill="#f4b844"/><path d="m137.101562 63.894531v134.199219h-36.5c-16.886718.035156-30.566406 13.714844-30.601562 30.597656v-183.796875c.035156-16.886719 13.714844-30.566406 30.601562-30.601562h36.5zm0 0" fill="#00efd1"/><path d="m55 365.394531c30.375 0 55 24.621094 55 55 0 30.375-24.625 55-55 55s-55-24.625-55-55c-.0078125-14.589843 5.785156-28.585937 16.101562-38.902343 10.316407-10.316407 24.308594-16.109376 38.898438-16.097657zm0 0" fill="#87e680"/><g fill="#00acea"><path d="m365.5 289.691406h-25.5c-3.867188 0-7-3.132812-7-7 0-3.863281 3.132812-7 7-7h25.5c3.867188 0 7 3.136719 7 7 0 3.867188-3.132812 7-7 7zm0 0"/><path d="m365.5 249.292969h-25.5c-3.867188 0-7-3.132813-7-7 0-3.867188 3.132812-7 7-7h25.5c3.867188 0 7 3.132812 7 7 0 3.867187-3.132812 7-7 7zm0 0"/><path d="m365.5 208.992188h-25.5c-3.867188 0-7-3.132813-7-7 0-3.867188 3.132812-7 7-7h25.5c3.867188 0 7 3.132812 7 7 0 3.867187-3.132812 7-7 7zm0 0"/><path d="m365.5 168.292969h-25.5c-3.867188 0-7-3.132813-7-7 0-3.867188 3.132812-7 7-7h25.5c3.867188 0 7 3.132812 7 7 0 3.867187-3.132812 7-7 7zm0 0"/></g><path d="m244.199219 420.492188 7.5-7.5c2.734375-2.734376 2.734375-7.164063 0-9.898438s-7.164063-2.734375-9.898438 0l-7.5 7.5-7.5-7.5c-2.734375-2.734375-7.167969-2.734375-9.902343 0-2.730469 2.734375-2.730469 7.164062 0 9.898438l7.5 7.5-7.5 7.5c-2.699219 2.75-2.699219 7.152343 0 9.902343 1.304687 1.292969 3.066406 2.011719 4.902343 2 1.875-.027343 3.667969-.777343 5-2.101562l7.5-7.5 7.5 7.5c1.320313 1.339843 3.121094 2.09375 5 2.101562 1.832031.003907 3.59375-.714843 4.898438-2 2.699219-2.75 2.699219-7.152343 0-9.902343zm0 0" fill="#fedb41"/><path d="m48.699219 439.792969c-1.953125.003906-3.8125-.832031-5.097657-2.300781l-14.300781-15.5c-2.625-2.84375-2.445312-7.277344.398438-9.898438 2.84375-2.625 7.277343-2.445312 9.902343.398438l9.5 10.300781 21.898438-20c2.84375-2.625 7.277344-2.445313 9.898438.398437 2.625 2.84375 2.445312 7.277344-.398438 9.902344l-27 24.699219c-1.285156 1.257812-3.003906 1.972656-4.800781 2zm0 0" fill="#fedb41"/><path d="m418.601562 439.792969c-1.953124.003906-3.8125-.832031-5.101562-2.300781l-14.300781-15.5c-2.621094-2.84375-2.445313-7.277344.402343-9.898438 2.84375-2.625 7.273438-2.445312 9.898438.398438l9.5 10.402343 21.898438-20c2.847656-2.625 7.277343-2.445312 9.902343.398438 2.621094 2.84375 2.445313 7.277343-.402343 9.898437l-27 24.703125c-1.296876 1.222657-3.015626 1.902344-4.796876 1.898438zm0 0" fill="#fedb41"/></svg>