<?xml version="1.0" ?><svg viewBox="2621 782 120 120" xmlns="http://www.w3.org/2000/svg"><defs><style>
      .cls-1 {
        fill: #fffc01;
      }

      .cls-2, .cls-3 {
        fill: #fff;
      }

      .cls-2 {
        stroke: #000;
      }

      .cls-3 {
        stroke: #0c0c0c;
      }
    </style></defs><g data-name="Group 48" id="Group_48" transform="translate(2464 578)"><circle class="cls-1" cx="60" cy="60" data-name="Ellipse 31" id="Ellipse_31" r="60" transform="translate(157 204)"/><g data-name="Group 47" id="Group_47" transform="translate(9.4 -9.19)"><path class="cls-2" d="M1406.774,506.427s-2.929.574-7.375-1.5-8.688-6.492-10.405-6.792-7.274-.5-7.88,0-2.2,1.873-3.435.8-1.516-5.094-1.516-5.094a38.867,38.867,0,0,1-6.566-1.4c-2.526-.9-6.016-2.636-5.556-3.6.909-1.9,6.844-1.6,11.719-5.893s7.779-10.987,7.779-10.987a4.177,4.177,0,0,0-1.414-4,24.5,24.5,0,0,0-5.96-2.9s-3.233-1-3.132-3.3,2.021-2.4,3.132-2.4,3.385,2,5.354,2a2.6,2.6,0,0,0,2.525-1.3V444.7s-.744-17.5,21.556-18,21.2,18.4,21.2,18.4" data-name="Path 142" id="Path_142" transform="translate(-1197.4 -193.5)"/><path class="cls-3" d="M1386.73,444.7v15.382a2.6,2.6,0,0,0,2.526,1.3c1.97,0,4.243-2,5.354-2s3.031.1,3.132,2.4-3.132,3.3-3.132,3.3a24.5,24.5,0,0,0-5.96,2.9,4.177,4.177,0,0,0-1.414,4s2.9,6.692,7.779,10.987,10.81,4,11.719,5.893c.46.96-3.031,2.7-5.556,3.6a38.87,38.87,0,0,1-6.566,1.4s-.278,4.02-1.515,5.094-2.829-.3-3.435-.8-6.162-.3-7.88,0-5.96,4.719-10.405,6.792-7.375,1.5-7.375,1.5" data-name="Path 143" id="Path_143" transform="translate(-1157.274 -193.5)"/></g></g></svg>