<?xml version="1.0" encoding="iso-8859-1"?>
<!-- Generator: Adobe Illustrator 19.0.0, SVG Export Plug-In . SVG Version: 6.00 Build 0)  -->
<svg version="1.1" id="Capa_1" xmlns="http://www.w3.org/2000/svg" xmlns:xlink="http://www.w3.org/1999/xlink" x="0px" y="0px"
	 viewBox="0 0 512.002 512.002" style="enable-background:new 0 0 512.002 512.002;" xml:space="preserve">
<g>
	<g transform="translate(2 1)">
		<path style="fill:#F57C00;" d="M408.342,127.258v354.389c0.055,5.48-2.074,10.756-5.917,14.663
			c-3.843,3.907-9.083,6.123-14.563,6.159h-266.24c-5.48-0.036-10.72-2.252-14.563-6.159c-3.843-3.907-5.972-9.183-5.917-14.663
			V303.813c31.752-0.263,63.324-4.798,93.867-13.483c41.78-12.493,78.24-38.481,103.68-73.899
			c13.174-19.388,27.538-37.941,43.008-55.552c11.535-12.376,25.511-22.226,41.045-28.928c6.287-2.535,12.89-4.2,19.627-4.949
			L408.342,127.258z"/>
		<path style="fill:#FF9801;" d="M382.743,131.952l-0.001,349.696c0.055,5.48-2.074,10.756-5.917,14.663
			c-3.843,3.907-9.083,6.123-14.563,6.159h-240.64c-5.48-0.036-10.72-2.252-14.563-6.159c-3.843-3.907-5.972-9.183-5.917-14.663
			V303.813c31.752-0.263,63.324-4.798,93.867-13.483c41.78-12.493,78.24-38.481,103.68-73.899
			c13.174-19.388,27.538-37.941,43.008-55.552C353.232,148.503,367.208,138.653,382.743,131.952z"/>
		<path style="fill:#D84315;" d="M408.342,264.218v110.251h-5.973c-6.595,0.335-13.155,1.162-19.627,2.475V268.058
			c6.387-1.974,12.967-3.261,19.627-3.84H408.342z"/>
		<path style="fill:#FF5722;" d="M382.742,268.058v108.885c-14.261,2.71-28.075,7.392-41.045,13.909
			c-14.845,8.088-29.205,17.034-43.008,26.795c-31.583,19.227-66.952,31.395-103.68,35.669c-31.116,4.191-62.47,6.357-93.867,6.485
			v-59.733c31.56-0.215,63.014-3.675,93.867-10.325c39.415-8.288,75.492-28.064,103.68-56.832
			c13.408-15.128,27.774-29.38,43.008-42.667C353.896,280.385,367.811,272.864,382.742,268.058z"/>
		<path style="fill:#D84315;" d="M408.342,451.269v30.379c0.055,5.48-2.074,10.756-5.917,14.663
			c-3.843,3.907-9.083,6.123-14.563,6.159h-25.6c5.48-0.036,10.72-2.252,14.563-6.159c3.843-3.907,5.972-9.183,5.917-14.663v-27.904
			c6.472-1.312,13.032-2.139,19.627-2.475H408.342z"/>
		<path style="fill:#FF5722;" d="M382.742,453.744v27.904c0.055,5.48-2.074,10.756-5.917,14.663
			c-3.843,3.907-9.083,6.123-14.563,6.159H284.95c4.779-2.475,9.387-5.205,13.739-8.021c13.803-9.76,28.163-18.707,43.008-26.795
			C354.668,461.135,368.482,456.454,382.742,453.744z"/>
		<path style="fill:#4E342E;" d="M459.542,132.634c-0.042,11.126-5.901,21.419-15.445,27.136
			c-10.752,6.315-23.723,3.328-35.584,3.499c3.517-0.533,6.904-1.719,9.984-3.499c9.544-5.717,15.403-16.01,15.445-27.136
			c0.129-15.17-10.74-28.204-25.685-30.805c6.912-0.341,13.824-0.427,20.565-0.427c8.215,0.068,16.067,3.396,21.828,9.254
			C456.412,116.513,459.61,124.419,459.542,132.634z"/>
		<g>
			<path style="fill:#795548;" d="M433.942,132.634c-0.042,11.126-5.901,21.419-15.445,27.136c-3.08,1.779-6.467,2.966-9.984,3.499
				h-1.451c-1.621,0.085-3.157,0.171-4.693,0.341l-1.792,0.256h-0.341c-22.653,4.534-43.207,16.339-58.539,33.621
				c-15.47,17.611-29.834,36.164-43.008,55.552c-25.44,35.418-61.9,61.406-103.68,73.899c-30.542,8.684-62.115,13.219-93.867,13.483
				c-6.827,0.256-13.653,0.341-20.48,0.341c-1.458,0.014-2.914-0.101-4.352-0.341H76.14c-15.37-2.538-26.533-15.994-26.19-31.568
				c0.343-15.574,12.088-28.525,27.555-30.384c1.024-0.085,2.133-0.171,3.157-0.171c61.611,0,121.515-14.08,162.731-63.061
				c13.739-16.299,23.381-35.413,36.779-52.053c13.532-17.439,30.382-32.026,49.579-42.923
				c24.441-11.994,51.282-18.296,78.507-18.432C423.203,104.43,434.071,117.465,433.942,132.634z"/>
			<path style="fill:#795548;" d="M408.172,163.269c-2.515,0.372-5.052,0.571-7.594,0.597l1.792-0.256
				c1.536-0.171,3.072-0.256,4.693-0.341H408.172z"/>
		</g>
		<polygon style="fill:#00BCD4;" points="212.076,41.669 281.767,109.936 316.609,7.536 		"/>
	</g>
	<g>
		<path d="M275.526,158.856c-6.41,8.213-12.401,16.745-17.95,25.563c-5.692,9.138-11.937,17.919-18.7,26.296
			c-34,40.417-85.1,60.067-156.217,60.067c-21.756,0.278-39.248,17.994-39.248,39.752s17.491,39.474,39.248,39.752
			c3.841,0,7.846-0.029,11.95-0.089v132.459c-0.073,16.109,12.908,29.237,29.017,29.346h266.233
			c16.109-0.109,29.09-13.237,29.017-29.346V173.049l0.108,0.004c10.734,1.59,21.698-0.144,31.417-4.971
			c12.165-7.224,19.637-20.31,19.675-34.458c0.113-21.806-17.444-39.589-39.25-39.754c-31.108,0-70.942,2.258-103.167,19.863
			C307.455,125.159,289.732,140.5,275.526,158.856z M199.467,336.132c43.559-12.985,81.572-40.071,108.067-77.004
			c3.717-4.983,7.35-10.042,10.975-15.104c9.476-13.935,19.957-27.159,31.358-39.567c13.697-15.413,31.85-26.184,51.942-30.82
			v83.359c-23.319,3.068-45.305,12.636-63.442,27.611c-11.771,9.845-22.806,20.537-33.017,31.991
			c-3.567,3.825-7.133,7.642-10.783,11.4c-27.052,27.577-61.676,46.509-99.492,54.4c-27.407,6.033-55.342,9.342-83.4,9.878v-42.583
			C141.39,348.845,170.882,344.289,199.467,336.132z M111.676,409.351c29.356-0.547,58.586-4.007,87.258-10.328
			c41.021-8.602,78.567-29.183,107.883-59.137c3.725-3.837,7.367-7.737,11.008-11.638c9.638-10.845,20.058-20.969,31.175-30.292
			c15.151-12.518,33.392-20.725,52.809-23.761v92.933c-21.564,1.588-42.607,7.385-61.942,17.065
			c-11.444,5.986-22.487,12.71-33.058,20.129c-3.558,2.396-7.117,4.787-10.75,7.142c-30.54,18.595-64.758,30.329-100.283,34.388
			c-27.875,3.84-55.964,5.929-84.1,6.254V409.351z M111.676,482.656v-13.48c28.959-0.331,57.869-2.48,86.558-6.436
			c37.959-4.394,74.506-17.001,107.1-36.946c3.717-2.412,7.358-4.858,11-7.308c9.966-7.015,20.38-13.372,31.175-19.029
			c16.964-8.489,35.395-13.652,54.3-15.211v59.684c-21.563,1.582-42.604,7.388-61.925,17.09
			c-11.401,5.934-22.395,12.619-32.908,20.013c-3.608,2.429-7.225,4.862-10.917,7.25c-3.835,2.477-7.612,4.675-11.297,6.654H123.626
			C116.938,494.837,111.593,489.344,111.676,482.656z M389.859,494.936h-72.976c9.786-6.889,20.021-13.12,30.635-18.65
			c16.953-8.512,35.385-13.686,54.291-15.241v21.611C401.892,489.344,396.547,494.837,389.859,494.936z M335.842,128.706
			c28.833-15.75,65.908-17.771,94.983-17.771c12.384,0.155,22.307,10.303,22.183,22.688c-0.022,8.117-4.311,15.625-11.292,19.767
			c-6.879,2.926-14.449,3.835-21.825,2.621c-2.95-0.158-5.883-0.308-8.767-0.308c-0.325,0.004-0.658,0.025-0.967,0.004l-1.375,0.033
			c-30.342,0.971-55.458,20.579-71.183,36.858c-11.981,13.005-22.997,26.869-32.958,41.479c-3.567,4.975-7.133,9.95-10.792,14.85
			c-24.341,33.973-59.274,58.901-99.316,70.871c-36.446,9.865-74.131,14.386-111.875,13.421
			c-12.33-0.277-22.182-10.352-22.182-22.685c0-12.334,9.851-22.409,22.182-22.685c76.467,0,131.833-21.637,169.275-66.146
			c7.206-8.906,13.862-18.243,19.933-27.958c5.239-8.338,10.893-16.408,16.942-24.179
			C301.621,152.96,317.61,139.071,335.842,128.706z"/>
		<path d="M50.492,202.669h0.067c67.933-0.554,119.933-17.137,154.567-49.304c13.84-13.801,26.127-29.075,36.642-45.55
			c3.529-5.117,7.178-10.296,10.889-15.405l25.136,24.622c1.597,1.562,3.741,2.437,5.975,2.437c0.665,0.001,1.328-0.077,1.975-0.233
			c2.853-0.676,5.158-2.773,6.1-5.55l34.842-102.4c1.045-3.06,0.269-6.448-2.003-8.749c-2.272-2.301-5.649-3.119-8.722-2.114
			L211.426,34.557c-2.834,0.927-4.978,3.266-5.658,6.169c-0.679,2.903,0.205,5.95,2.333,8.039l32.246,31.588
			c-4.352,5.91-8.577,11.898-12.629,17.776c-9.812,15.452-21.286,29.783-34.217,42.738c-31.4,29.171-79.542,44.221-143.075,44.738
			c-4.713,0.018-8.518,3.854-8.5,8.567C41.944,198.882,45.78,202.688,50.492,202.669L50.492,202.669z M305.034,21.944
			l-24.975,73.408l-49.966-48.937L305.034,21.944z"/>
	</g>
</g>
<g>
</g>
<g>
</g>
<g>
</g>
<g>
</g>
<g>
</g>
<g>
</g>
<g>
</g>
<g>
</g>
<g>
</g>
<g>
</g>
<g>
</g>
<g>
</g>
<g>
</g>
<g>
</g>
<g>
</g>
</svg>
